<?xml version="1.0" encoding="UTF-8"?>
<svg id="Layer_1" xmlns="http://www.w3.org/2000/svg" version="1.1" viewBox="0 0 500 500">
  <!-- Generator: Adobe Illustrator 29.1.0, SVG Export Plug-In . SVG Version: 2.1.0 Build 142)  -->
  <defs>
    <style>
      .st0 {
        fill: #121212;
      }
    </style>
  </defs>
  <path class="st0" d="M437.98,383.41c-4.2-.78-7.08-2.39-10.79-3.63-1.24-.41-2.99.06-3.71-.07-.42-.07-.39-.83-.58-.97-.26-.2-2.47,1.12-2.89-.4-.4.19-1.06.18-1.47.37v.98s20.15,5.19,20.15,5.19c1.61.6,2.35-.22,3.41-.65-.76-1.41-2.99-.6-4.13-.81Z"/>
  <path class="st0" d="M464.93,291.47s-.42-.35-.89-.38c-1.17-.08-2.36.08-3.53.02,1.24,3.58-1.03,1.98-1.49,2.36-.3.25-1.18,2.31-1.46,2.79.03-1.96.37-4.14.37-5.89l2.95.36c.1-.29-.36-.31-.37-.36-.81.26-1.34-1.33-1.41-1.75-.22-1.2.67-1.48.68-2.11,0-.47-1.53-2.58-1.74-3.41-.21-.8-.05-1.52-.1-2.29h-.37c-2.75-.76-4.3,2.94-6.37,3.78-1,.41-1.42-.13-2.19-.02-1.19.17-1.79,1.28-2.58,1.85-.4.28-1.25.18-1.38.27-4.42-1.16-.33-.65-.74-3.31.14-.02.57-.26.74-.37l.73.74c.22-.62-.23-.8-.36-1.1-.25-.55-.9-1.4-.73-1.99.26-.9,1.21.35,1.46-1.69.21-1.72.55-3.44.74-5.15-1.56,2.27-2.92.46-4.79,0,1.12-.86.27-1.72.37-2.2.17-.91.57-1.69.74-2.94.03-.24-.03-.5,0-.74-.45-.34-.96-.3-1.47-.37-.24-.03-.52.05-.74,0-1.11-.24-1.24-.25-2.21-.37-.82-.1-1.77.1-2.58,0,1.51-.56,1.6-.32,1.8-2.07.32-2.85-.04-5.79-.33-8.61-.74.13-.59.8-.74,1.28-.51,1.57-.98,3.69-1.29,5.33-.21,1.12-.72,2.64-.17,3.69-.54-.08-.94-.34-1.1-.37-1.56-.24-3.29-.19-4.79-.37-1.55.2-1.44,1.89-2.93,2.41-1.04.36-2.58.32-3.77.65-1.29.35-5.71,2.06-6.59,1.56-.29-.16.07-1.09-.52-1.3-1.31.16-2.55,1.51-3.85.92-.55-.25-1.1-1.02-.38-1.48,1.05-.68,5.33-.57,7.09-1.38.81-.38,1.09-1.11,1.78-1.53.45-.27,2.31-.66,2.5-1.01.06-.12-.05-2.47-.08-2.65-.09-.54-.58-1.04-.61-1.34-1.32.6.23,3.43,0,3.68-3,.63-6.15-.15-9.2-.36-.62.79.37,1.79.19,2.21-.37.89-2.22,1.3-2.79,2-.57.7-.58,2.15-.77,2.36-.16.17-.62-.02-.68.04.51-1.06.77-2.2,1.1-3.31.64-2.12.54-2.18.74-4.42.23-2.67.57-5.45.37-8.1-.07-.92.2-1.46-.35-2.41-.34-.58-4.06-3.38-4.06-3.66,0-.27,1.4-1.66,1.83-1.84-.91-.19-1.15-2.44-1.14-3.34,0-.73.38-1.05.41-1.26.07-.46-.04-1,0-1.47-1.44,1.1-1.74-1.27-1.84-2.58l-.92,1.47c-.96-.4.13-2.96-1.9-3.26-1.56-.23-.38,2.21-.51,2.67-.25.87-1.65-.04-1.48,1.53.08.69.68.47.75.79.32,1.39.34,3.51.77,5.01-1.94.73-.09,2.2-.94,3.58-.43.7-2.62.86-3.06,2.83-.82,3.69.11,8.64-.08,12.62-.16,3.47-.43,4.81-3.31,6.99.15-1.2-.35-.61-1.05-.5-2.31.38-4.99,1.39-7.23,1.61-2.89.28-4.44-.59-7.71.76-1.12.46-1.77,1.77-1.95,1.81-1.07.26-3.74-.05-5.09-.03-.91.02-2.02,0-2.75.02v-.37c4.89-.09,3.36-.62,6.86-2.53,4.23-2.3,6.82-.02,9.73-.96.56-.18,1.22-.59,1.09-1.3-.47.17-1.08-.37-1.29-.37h-5.52c-.06,0-.65-.57-.73-.74-.82-1.7.69-2.34.82-3.17.07-.42.1-3.76.1-4.55,0-1.81-.28-3.24-.39-4.96-.06-.99.38-2.31.28-2.9-.12-.78-2.76-3.2-3.57-3.56-.07-1.07,1.48-1.21,1.82-2.39-.32-.84-3.15-1.54-3.26-1.69-.45-.62.61-2.17.15-2.91-1.39-2.22-1.2,2.76-1.34,2.91-.12.14-2.58.48-3.12,1.51-.36.67,1.42,1.89.23,3.52-1.05,1.45-1.22-.19-1.86-.94-.63-.74-1.77-1.42-2.02-1.85-.53-.91.82-2.94.18-3.67-.63-.71-.78.76-.94.76-.81,0-1.41-1.12-1.82.36l-1.28-.75-.37,1.84c-.06-.03-.3-.02-.37,0-.3.08-.24.18-.37.37-.13.19-.3.52-.37.74-1.23.04-1.73-1.21-2.94-.37.65-3.6-1.44-1.61-2.16-2.26-.17-.15-.05-1.18-.61-1.42-.45-.1-.85.72-1.4.68-.66-.05-2.99-2.18-3.19.06,2.87-1.3,1.43,1.33,2.82,2.24,1.89,1.22,1.27-.38,2.32-1.13-.92,1.63.67,2.29.67,3.05,0,.52-1.03,3.01-1.77,2.47-.03-.43-.38-2.06-1.11-1.47-.1.08.41,1.99,0,2.57,1.34-.23,1.63-.94,2.21.55.14.35.61.69-.19.92-1.59.47-1.64-1.37-2.01-1.09-.03.02.11.64-.25.74-.9.24-2.75-.1-3.95.04-12.96,1.53-26.27,4.45-39.26,6.58-6.87,1.12-13.75,2.2-20.62,3.31-2.2.36-4.44.53-6.49,1.05l.23.43c-.86.1-1.1-.03-1.47,0-2.09.15-3.37.97-5.45,1.36l-17.67,6.49-2.09-1.21c-1.01,1-2.75.22-.94,2.56-2.2,1.4-4.18-.18-6.63.73,1.52-1.45-1.31-2.21,1.27-3.33l-3.96-.26-36.94.59-7.13,1.17c-.08-.76-.15-4.6,0-4.78-1.09-1.73-2.13-.87-3.82-1.15-3.87-.63-9.05-1.48-12.75-2.53-.53-.15-1.49.3-1.79-.6-.35-1.03.14-3-.05-4.18-.06,0-.51-.33-1.1-.37-.29-.02-.9-.06-1.1,0v1.47c0,4.65-.14,9.35,0,13.99.06,2.08-.67,3.7,2.21,3.31.03-.61-.03-1.23,0-1.84.09-1.96.26-5.36.02-7.2-.1-.8-.38-1.02-.76-1.63l15.11,3.11c.67.48.25,2.32.35,3.14.04-.06.95-.06,1.02-.52.09-.58-.64-2.59-.28-3.53-2.6.45-5.41-1.05-8.1-1.11-.07-.67,1.23-.38,1.61-.33,2.27.34,5.26,1.91,7.22.33.29.42-.2,8.7-.03,10.15.09.71.73.55.77.71.26,1.1-.76.89-.77,1.12-.03.62.78,1.49.76,2.19-.13.5-.99-.25-1.11-.18-.21-.2-.62-1.06-.74-1.1l-.16-2.6-1.86-.35c-11.26,2.56-24.13,2.9-35.18,5.89-1.92-.01-3.8.45-5.67.77-10.54,1.84-21.27,3.38-31.89,5.12-16.57,2.71-33.13,5.77-49.71,8.47-7.1,1.16-14.25,2.14-21.36,3.31-.56.09-1.08.31-1.47.37-1.17.18-2.51.2-3.68.37-.17.02-.33.19-.37.37-1.59.12-4.95.48-6.45.74-.79.13-.82.69-.91.73-2.38-.51-4.53.78-6.63,1.1-1.53.23-3.49.33-5.43.64-1.43.23-2.64-.02-4.14.46-.22.07-.74-.22-.75.22l.55,8.64c.26.36,4.16,1.2,4.99,1.45,1.48.44,2.97,1.05,4.42,1.47-1.66-.08-2.71.15-3.68,1.47.3-2.63-1.6-2.64-3.68-2.94-.27.96.58,1.99.58,2.76,0,2.69-.6,5.59-.55,8.83.15,9.06.46,18.29.7,27.43.04,1.71-.05,3.44,0,5.15.19,6.59.5,13.26.74,19.88.27,7.59.89,15.35,1.12,22.99.08,2.53.21,5.51-.38,7.93.33.04.3.07.37.37.05.2-.02.5,0,.74-2.34,1.33-4.96,1.79-7.47,2.65-1.31.45-2.49.72-3.65,1.12-.8.28-2.6,1.14-3.25,1.74,1.12-.29,2.67-.82,3.58-1.02,1.42-.3,3.07-.21,4.52-.46.19-.64-.89-.18-.73-.55.08-.2,2.03-1.15,2.4-1.29.26-.1.16.68.36.75,1.39.44.62-.85,1.16-1.13.52-.27,2.51-.65,3.08-.35.1.05.22.26.37.37,0,.61,0,1.23,0,1.84,0,3.47.05,8.01.37,11.41.18,1.9.75,6.48,1.18,8.21.18.74.96,1.22.99,1.89.07,1.55-.98,3.93-1.04,5.2-.13,2.61,1.8,4.2,1.43,6.95-.07.52-.64.9-.64,1.42,0,1.22,1.56,1.91,1.39,3.2h173.06l.73-2.21c-.71-.22-1.09.87-1.65.74-.53-.13-.45-1.56-1.16-1.79-.17-.06-2.72-.37-2.86-.34-.86.16-2,3.82-4.26,1.21,5.01-2.83-1.02-3.56-1.1-4.42-.07-.71,2.63.01,3.08-.47,2.41,2.47,1.28-.46,3.26-1.28.75-.31,4.52-.72,4.85-.96.4-.3.1-1.04.41-1.52.19-.29.9-.29.94-.61.09-.65-1.1-2.17.6-2.65,1.88-.54,1.7,1.6,1.95,1.78.35.26,1.08-.68,1.63-.7.75-.04,1.82.98,2.05-.58-.7-1.18-2.71-.54-1.49-2.14,1.34-1.74,4.1,1.16,6.06.84.72-.12,1.45-1.01,2.43-.73.38-.75-1.1-1.94-.37-2.39.86-.54,3.96-.85,4.71-.1.33.33.28,1.19.51,1.34.32.2,1.09-.12,1.36.1.42.35-.07,2.64,2.27.5-2.8-1.45,1.63-.94.57-2.77-.44-.76-2.34-.67-.7-1.78,1.57-1.07,2.79.76,4.1,1.32,2.86,1.22,2.14-.35,2.88-.61.93-.31,1.35.51,1.88.61,1.78.35.97-1.62,1.26-2.06.15-.23,1.66-.32,2.16-.61.64-.37.54-1.23,1.45-1.49,2.01-.57,2.64.93,3.17.89.43-.03,2.73-5.46,4.41-1.05.81-3.03,2.94-.54,4.78-.73.93-.1,1.16-1.16,1.9-1.36.89-.24,3.23.1,4.29-.12.22-.05.23-.64,1.03-.86,2.03-.56,4.84-.61,6.96-.97.08.35-.11,1.37,0,1.48.1.11,2.87-.07,2.97-.18.49-.52.19-1.31.42-1.59.13-.16.84-.09,1.21-.44.4-.39.38-1.26.94-1.65,1.41-.98,2.71.24,3.44.1.49-.09,1.1-1.2,1.8-1.49.92-.39,4.75-.3,2.63-1.7-1.56-1.03-5.41,1.45-4-1.51.95-2,5.03-.64,6.92-1.43l1.72,1.79c.52-3.33,1.49-.67,2.71-.81.61-.07,1.14-.89,1.54-.91.34-.02.68.52,1.3.44,1.2-.15,2.84-2.29,2.92-.2-.91-.11-1.88.16-2.21,1.1,1.48-.39,2.37,1.3,3.53,1.47,1.02.16,5.17-.72,4.41-2.21-.73-1.42-3.57.31-3.51-.92,0-.12,1.07-1.15,1.37-1.23.52-.15,3.7.03,4.15-.43.04-.04.04-1.06,0-1.1-.13-.13-3.89.6-2.42-1.5.12-.17,3.63-1.61,3.88-1.66.72-.15,1.43.36,1.99.18.62-.2.58-1.34,1.13-1.84.42-.38,5.75-1.41,6.67-1.46,3.56-.21,2.26,1.33,2.38,3.14.05.75.37,1.41.38,2.19.04,2.24-.24,4.71-.36,6.96,2.74,1.78,4.46-1.12,4.73-3.67.3-2.78-.17-7.24,0-10.26.03-.57.29-1.11.41-1.66,2.79.99,4.74-.23,7.34-.38.16,2.32-1.3,1.08-2.04,1.16-1.76.2,1.79,5.22,3.27,4.02.42-.34.33-1.13.65-1.64,1.03-1.6,1.52-2.73,2.48-4.14.34-.5.75-1.06.98-1.62.89-2.17-.1-3.49,3.13-3.68,0-1.07-1.15-1.14-1.14-2.39,0-2.96,4.12-.23,5.69-.29,1.36-.05.85-1.1,1.25-2,.82-1.84,2.04,0,2.8-.15.48-.09,1.17-1.32,2.06-1.62.82-.27,3.65-.99,4.09-.38,1.02,1.41,0,6.61.01,8.45.05,4.17.82,8.73.35,12.94-.12,1.06-1.4,1.81.17,2.03,2.65.36,2.96-2.26,3.12-4.26.52-6.34-.32-13.37.09-19.78.54-.73,1-3.85,1.38-4.14.24-.18,3.1-1.1,3.32-.91-1.19,1.8,1.31,2.53,1.84,1.28.33-.78-.96-.55-1.07-1.12-.06-.33.38-.94.34-1.44-.04-.49-1.4-1.7-.18-2.03,1.55-.42.95,2.42,3.04,2.88.78.17,1.39-.36,2.03-.24.56.11.97.95,1.9.99.96.04,2.58-.33,4.06-.33.61,0,1.38-.46,1.81-.34.72.21.45,1.8,1.51,1.82.43,0-.14-1.71.55-2.4,1.17-1.18,2.89.27,4.35-.42.72-.34.33-1.3,1.04-1.55.71-.25,1.91.06,2.72-.04.12.59-.15.77-.6,1.06-.74.49-2.67.14-2.34.96.39.98,2.69,1.3,3.68,1.3.43-.74-.1-3.17,0-3.31.07-.11,2.22-.65,2.5-.67.92-.06,1.45.59,1.75.57.32-.02.6-.66.91-.83,1.42-.77,2,1.21.37,1.3.7,1.73,1.83-.35,2.76-.39.27,0,.11.65.63.87,1.87.78,8.13-.97,9.87-1.96.32-.18,1.03-.22,1.12-.62.29-1.25-.27-3.34,0-4.71.48-2.5,6.82-2.75,8.77-3.38,2.41-.78,5.43-3.1,8.14-3.64,2.72-.54,3.15-.28,5.91-1.27,2.13-.76,3.48-.74,5.52-1.1,1.16-.2,2.39-.27,3.31-1.1-.19-5.5.22-11.71.37-17.3-1.24,2.43-2.38.84-3.77,1.17l4.14-16.99c1.82.19,3.7.33,5.53.37-.28,7.17-.12,14.38-.36,21.55-.18,5.56-.71,11-.75,16.73-.02,3.06,0,6.14,0,9.2,0,.93-.41,4.34-.34,4.56.25.86,1.81.58,2.55.6.02-.2.35-.53.37-.74.04-.36-.03-.74,0-1.1.05-.61-.04-1.23,0-1.84.57,2.29.67,1.15,2.36,1.5,1.57.32,1.84.24,3.16.34,3.08.24,4.13.86,7,1.47l.74-1.47c-1.09-.16-1.75.08-2.57.73.08-.47-.17-1.57.04-1.82.18-.21,1.61.42.88-.76-.49-.81-1.53.67-2.02.74.1-.83-.03-1-.74-1.29.26-.66,1.07-.14,1.1-.19.1-.17-.52-1.65.25-2.26,1.54-1.22,2,1.14,2.15,1.14.5,0,.24-1.08.52-1.28.25-.18,1.52.13,1.86-.73.01-.33-1.13-.55-1.29-.49-.35.14.06.84-.54.67.18-1.26-1.48-.34-2.65-.76-.11-.04-1.65-1.43-1.69-1.53-.1-.24-.16-4.9-.08-5.18.08-.3.76-.21.75-.43-.02-.55-.66-.9-.76-1.49-.1-.61.04-1.9,0-2.74-.02-.49.01-.98,0-1.47-.16-6.34.28-12.62.36-18.96,0-.62-.24-1.64.37-2.02-.06-6.88.51-13.73.37-20.61.32-3.97.61-8.27.74-12.15.17-5.29.28-10.85.37-16.19,1.99-.14,3.8-1.54,5.52-2.21-1.13-1.66.43-.8,1.1-1.29.12-.09,1.06-1.36,1.11-1.48.32-.81-1.38-.4-.36-.91ZM452.93,356.05c-.19,1.25.31,4.57.23,6.29-.05,1.14-.34,2.21-.38,3.48-1.46,2.46,1.27,9.17-2.09,10.26-.64.21-.37-.45-.77-.66-1.71-.92-1.48.14-1.65.22-.16.08-.51-.24-.59-.16-.2.18.2.8-.42.65.09-1.62.04-3.31,0-4.99v-3.47c0-.12,0-.25,0-.37l1.11-40.12,5.15.74c.89,3.19.04,5.61-.02,8.63-.08,4.68.49,10.6-.36,15.1-.29,1.52-4.36,4.01-4.96,5.35-.26.58-.33,2.44-.4,3.28-.08.95-.44.97.58.39.61-1.46,4.2-5.93,5.52-6.99,1.8-.13-.9,1.97-.96,2.37ZM451.68,325.33l2.57-11.04-.36,11.04c-.73.02-1.48-.03-2.21,0Z"/>
  <path class="st0" d="M122.7,163.78c.51.03.88.59,1.18.62,1.13.09,3.79-.16,3.37-1.87-.41-1.64-2.27-.64-3.05-.72-.85-.09-1.15-1.2-2.52-.95-1.75.32-1.66,2.76-.98,3.23.44.3,1.48-.34,2.01-.31Z"/>
  <path class="st0" d="M243.43,83.22l.64,8.29.11-7.65c-.23-.28-.48-.48-.75-.64Z"/>
  <path class="st0" d="M253.21,82.04c-2.5-.01-5.45.13-8.33.2l-.09,1.33c.93-1.44,7.14.01,8.42-1.52Z"/>
  <path class="st0" d="M125.07,168.9c.24,1.66-.56.93-1.24,1.44-.07.05-.93,1.42-.97,1.51-.15.35-.38,1.33.2,1.47.12.03,2.33.04,2.5.01.33-.04.06-1.18,1.35-.38-.11.3-.21.97-.37,1.47-.21,1.11.56.71,1.27.74.99.03,2.39-.18,3.25,0,.37.08.53.71.64.73,0,.72-.73,1.38-.72,2.03,0,.09.28,1.26.35,1.65.22,1.28.39.74,1.1,1.1,1.85-.27,2.4-2.5,4.05-1.84.12-2.66.82-.35.94-.35.37,0,.91-.45,1.41-.42.17.01,1.98,2.09,2.64,2.22.87.17.53-1.55,1.46-1.8,1.36,1.83,2.18.35,2.88.4.75.05,1.42.98,3,.67.79-.16,1.03-.87,1.56-1.03,1.24-.38,2.72.67,2.32-1.18-1.2,1.27-2.66.34-4.05,0,1.03-.16,5.67-.17,5.8-.9.07-.38-.57-1.72-.27-2.41,1.67-.23.9,2.37,1.1,2.58.14.15,3.4-.11,4.05,0-.34-.49-1.58-2.55-.55-2.94,1.06-.4.82,2.47.92,2.57.14.15,3.39-.1,4.05,0,.13-.59-.49-.14-.71-.64-.2-.44-.53-1.58.16-1.92,1.22.9.3,2.64,2.02,2.2v-1.84c1.56-.29.65,1.76.74,1.84.6.55,1.75-.58,1.48-1.47,1.23-.34.41,1.01.93,1.13.56.13,2.01-.02,2.75-.02,2.59-.02,5.13-.58,7.73-.37.13-.12-.93-2.9-1.1-3.31-.17-.39-.49-.91-.74-1.47-.37-.84-.72-1.76-1.1-2.58-.22-.47-.5-.98-.74-1.47-.42-.87-1.07-1.78-1.47-2.58-.69-1.35-1.12-2.82-2.03-4.05l-.37,1.11c-.31-2.39-2.58-1.23-4.23-1.11-.06-1.84,2.15.07,1.47-1.65-.48-1.2-1.91.21-2.57-.75l2.21-.55c.02-.37.04-.66-.12-1.02-.32-.72-1.97-.58-1.72-1.56,3.65.74,3.29-1.35,1.64-3.67-.44-.61-1.6-1.13-1.66-1.38-.18-.74.39-2.09.22-2.33-.82-1.15-3.67.62-4.19-.61-.1-.24-1.04-4.17-1.06-4.39-.09-1.36,1.12-2.37,1-3.59-.14-1.31-2.19-3.09-1.48-5.01l-7.36.37c.47-1.37.35-2.64.37-4.05.61-.38.37-1.4.37-2.02.08-6.84-.15-13.63-.37-20.43.35.71.51.7,1.25.76,6.99.57,13.77-.88,20.64-1.14,15.41-.59,31.12.38,46.39-.37,1.53-.07,3.09.08,4.62.01l.39,22.66c.08.38-.27,1.27-.57,1.27h-6.08c.04.5-.01.99-.18,1.46-.82,2.25-2.75,5.38-3.26,7.46-.23.94.12,1.54-.13,2.38-.34,1.11-1.56,1.97-2.15,3.04-.61,1.1-4.55,10.23-4.21,10.7l.73-.37c0,1.3-1.03,1.98-.37,3.31h-1.1s0-2.2,0-2.2c-.49,1.64-1.19,3.21-1.85,4.78-.61,1.47-1.23,2.95-1.84,4.42-.59,1.43-1.08,2.87-1.84,4.23,0,.31,1.46.22,1.84.19,4.22-.39,8.62.92,12.89.74,2.15,1.65-1.18,2.27-2.1,2.71-.16.08-.11.54-.14.57-.76.5-.89-.82-1.12-1.14-.21-.29-.6-.36-.62-.39-.29-.66,1.34-2.98-2.1.09-.65-1.96-.81.64-.92.74-.17.16-1.07-.56-1.48-.23-.36.3-.32,1.26-.7,1.53-1.36.95-3.44-1.11-4.44,1.27-.1.24-.32.51-.37.74,1,.12,1.31,1.75,2.02,0,.78,2.04,1.84.16,3.51.48,1.44-.42,1.02-1.49,1.11-1.57.35-.33,1.78.53,2.21.19.59-.46.21-3.96,1.83.15l-1.1-.37-.74,2.21c.59-.4,2.2-.38,2.56-.56.18-.09,2.89-1.94,3.31-2.23,1.38-.97,2.36-2.57,4.08-3.1-.01-.36-1.48-.65-1.84-.73.68.09,1.59-.13,2.21,0,1.5.27.58-1.98,1.47-2.21-.04.99-.19,2.29,1.11,2.2l.37-.73.37,1.47v-9.57l-.73.73c-.45-2.14.86-1.24,1.1-1.47.23-.22-.3-1.54-.29-2.02,0-.35.13-2.03.66-2.03v14.35c3.18-.12,1.97-1.9,1.47-4.05,1.57-.26,1.14,3.04,1.48,3.31.04.03,1.05.04,1.09,0,.28-.26-.55-2.34-.36-2.94,1.15.13,1,2.48,1.1,2.58.04.04,1.06.03,1.1,0,.35-.34-.63-1.8-.18-2.21l.92,2.22h1.1s-.36-4.79-.36-4.79c1.21.33.92,4.6,1.1,4.79h1.1c.19-4.51.89-.22,1.11,0,1.14,1.13.65-1.75.73-1.84.8-.79.92,1.39,1.29,1.48,1.37.31.87-.7.92-1.48,1.14.19.3,1.42.36,1.47.13.09,2.76.09,3.12.03.48-.09-.22-1.81.92-.88,1.35,1.09,5.08.1,7.38.49.23.04.5-.02.74,0l-.37-1.1,4.42-4.42c.02-1.96-.02-3.93,0-5.89-1.66.06-3.43.89-5.01,1.06-1.33.15-2.59-.16-3.83.04-.25-.49-.78-1.3-1.1-1.84-.1-.17-.81-.45-1.1-.91-.63-1.02-1.16-3.3-1.97-3.73-1.48-.8-3.56-1.15-5.03-.14.25-2.47-2.21-2.5-2.21-5.15,2.42.34,2.64-.24,2.58-2.58h-4.04c.21-2-1.62-4.29.73-5.15.08.59.74.28,1.1.37l.03,2.19c.36.07.72.03,1.08.02l2.94.74c.31-.39-1.53-4.04-1.84-4.78-.72-1.74-1.15-3.16-2.21-4.78-.1-.15-.58-.19-.74-.74-.02-.06.44-.45.19-.75-.51-.62-1.38.13-.56-1.83h-6.26c-.31-1.72-.19-3.61-.4-5.31-.29-2.41-.5-4.54-.71-7.02-.14-1.6-1.16-4.76-.54-6.07.99-2.1,1.09-.73,1.28-4.05.24-4.05.18-2.75,4.05-2.94,2.71-.13,5.38-.31,8.1-.37,14.37-.29,28.71-.42,43.08-.74,3.55-.08,7.14-.06,10.68,0l-2.58.73c-.36-.05-2.44-.35-2.21.55.43.84,2.79.45,2.96,1.17.35,1.48-.27,4.18-.04,5.85.12.84.72,1.34.77,1.85.07.67-.64,1.29-.77,2.16-.23,1.6.37,2.99.4,4.42.05,2.27-.07,4.56-.02,6.82h-6.26c-.55,4.19-3.3,7.8-4.56,11.77-.38,1.21.31,2.2-1.61,3.6l-9.29,21.27c-.35,1.19,2.27.15,2.77.16,1.24.03,2.44.36,3.85.38.63.01,1.44-.31,2.21,0,.3-.32.35-6.2,1.29-6.99l.1,3.02c-.62.57-1.22,4.06-.46,4.33.76.27.39-.67.73-.74.84-.17.47.66.73.75,1.54.5.47-1.52,1.47-1.12.1.04.35,2.03,1.29,1.11.2-.2-.46-1.8.55-1.48.57.18-.44,1.8.92,1.48l1.11-1.84.18,2.2.56-2.58c1.91-.29.81.76.73,2.03-.05.7.45.85.74.55.56-.58.84-8.97,2.03-10.3.96,1.46-.24,2.33-.46,3.59-.37,2.16-.4,4.34-.77,6.49l1.04.59c.65-2.22-.39-5.42,1.29-6.99l-.55,6.62c1.28.18.74-2.01,1.22-2.85.1-.18.62-.07.62-.1v-11.41h.36c-.31.69.37,1.7.37,2.02v13.43c1.27-.98,2.82.11,3.85,0,.55-.06.94-.68,1.48-.71.73-.05,1.49.75,2.5.64,1.68-.17,3.9-1.57,4.88-1.76.72-.14,2.15-.06,2.95,0,.42.03,1.01-.25.91.36-3.32-.28-1.29,2.53-1.47,3.84-.15,1.07-1.74,3.44-2.12,4.54-.53,1.55-.84,4.47-1.36,6l16.97-7.13c-.14-3.91-.64-7.73-.97-11.66-3.31-.27-2.18,4.25-4.78,4.78,0-.49,0-1.01-.18-1.48-1.4-3.61-3.16-7.14-4.72-10.67-.17-.38-.1-1.31-.3-1.43-.27-.16-.87.07-1.14-.06-.35-.18-.26-.59-.57-.71-.36-.14-1.08.08-1.2-.01-.17-.13.67-1.7.34-2.18-1.14-.86-4.78-.01-5.45-.45-.17-.11-.66-2.89-1.53-3.63l-1.1,1.1v-2.57s-1.1.37-1.1.37c-.26-.72.3-1.55.32-2.05,0-.18-.63-.12-.7-.4-.73-2.85,3.54-2.37,4.05-.13-.09,0-2.21.38-1.66.74h3.86c-.21-.83-.87-.66-1.47-.74-.31-2.72.16-1.71,1.01-2.28.78-.53-.67-3.19-1.03-4.06-.74-1.79-1.79-3.87-2.71-5.85-.17-.36.09-.94-.02-1.09-.6-.78-4.54-.15-5.72-.35-.18-.18.17-3.72,0-4.53-.07-.31-.68-.28-.85-.7-.65-1.61-.17-6.15-.24-8.22-.03-1.06-.82-3.05-.22-3.88.66-.91,1.18.91,1.31-2.18.05-1.34-.06-2.69.02-4.03.37-.37,7.29-.54,8.29-.42.71.09.36.73,1.06.8,1.44.16,3.91-.13,5.73-.04,1.99-.6,4.53-.44,6.63-.37,9.53.34,20.46.57,30.03.02.69-.04,1.38.08,1.64-.76.5.05,3.64.74,3.7.96l-.39,16.7c-.12,1,.34,3.78-.34,4.25-1.83.55-3.66-.54-5.54-.2.08.98-.13,1.77-.45,2.68-1.37,3.75-3.59,7.17-5.07,10.76.41.35.92-.05.74.72-1.31.67-2.51,2.84-2.78,4.24-.2,1.01.68,1.68.31,2.48-.31.68-2.35,2.05-2.68,3.04l-4.78,11.41c1.17-.08,1.7-.88,2.94-.36-.02-1.37.26-2.85.93-4.05.99-.13.41.61.37,1.11-.1,1.11-.34,2.22-.56,3.31.99.36,1.39-1.48,1.66-1.47l.92,1.48.92-3.68c.73.81-.68,3.9.92,3.68.29-2.95.76-6.17,1.46-9.04.15-.62-.36-1.07.74-.89.38,2.88-1.04,5.53-1.42,8.33-.04.27-.11,3,.68,1.98.08-4.46,2.74-8.35,2.21-12.88,1.05-1.37.62,2.83.74,2.94h1.1c-.03-2.01-.05-4.89,1.47-6.26v1.84c1.87.54.89-2.18,2.21-2.94l.37,2.2c.21-.79,1.05-1.34,1.23-2.2.11-.52-.2-1.07-.06-1.56.22-.74,1.54-4.88,2.49-4.32.03.02-.04.46.15.57.43.28,1.11.19,1.3.74.91,2.56-1.18,1-1.43,1.24-.6,1.86.08,1.19.35,1.75.13.28-.13.95.06,1.16.14.16.89-.07,1.01.06.21.21-.07,1.11.03,1.56.1.42,1.04.46,1.31.99.43.87,0,1.89.18,2.71.06.28.73.25.75.45.06.55-.95,3.69-.73,5.84.06.58,1.63,3.88-.03,2.79l.37,4.05c2.2.18,2.39-.23,1.84-2.21l.74,1.84c1.97-.05.4-2.44.37-3.68,1.05-.18.61.22.79.85.22.8.37,1.63.32,2.46h1.1s.19-1.11.19-1.11c.25,1.34.21.81.92,1.11,1.24-.37,2.95-.58,4.23-.66,1.8-.11,4.26-.3,5.96-.21.34.02.65-.14.98-.2l.57-3.08c-3.68-6.36-4.45-10.72-7.13-17.22-.23-.56.04-1.29-.93-1.07-.16.19-.66.34-.95.52-.21.14-.15.55-.18.56-.17.11-.96-.84-1.45-.73.08-.79,1.34-.64,1.84-.36.85-2.95-1.22-4.58-2-6.66-.39-1.04-.31-2.89-1.02-4.14-.5-.88-2.11-.88-.66-2.45l-6.63.37c-.66-1.49.7-2.27.77-2.73.14-1.06.15-4.36-1.13-4.63.02-4.23-.02-8.47-.02-12.71,0-.92.01-1.95.02-2.75,0-1.36-.42-7.42.36-7.96.36-.25,1.06.29,1.11.23-.14-10.5.62-20.91.4-31.43-1.32-.46-1.03-.36-1.5-1.33-.29-.59-.23-1.47-.73-1.47l-.38,4.05-1.1-1.47v15.27c0,2.3-3.26,1.63-4.79,1.66-7.99.15-15.99-.38-23.93-.37-17.63.03-35.42.15-53.02,0-4.52-.04-9.04.05-13.62,0-4.52-.05-10.34.56-14.93.02-.37-.04-1.27-.17-1.27-.57l-.16,2.39h47.11c1.81,0,1-.35,3.13.37l1.12,10.87c-.52,1.45-.4,8.72-1.2,9.31-.31.21-.77,0-1.02.07-10.11.54-20.24.22-30.39.35-.92.01-1.76.37-2.75.38-4.48.07-8.97-.09-13.46-.02-1.13.02-2.38,1.01-2.63-.96l-.78-10.16-.14,10.14c-.58,2.04-5.41,1.38-7.29,1.37-1.84-.01-3.69,0-5.53,0-.7-6.7-.13-13.5-.37-20.25,3.55.31,7.78-.42,11.24,0,.55.07,1.02.2,1.45.45l-.07-.96c.5,0,1.01-.01,1.52-.03l.06-.93h-1.66l-.17-2.17c-.82.64-6.42.31-7.95.33-3.92.05-7.86-.01-11.78,0-22.01.08-44.18.04-66.09,0-1.23,0-2.82-.71-4.24-.37l-.36-19.33-1.48-1.28h-1.1c-.36.96-1.83.56-1.86,1.65l1.49,72.15c-.41,2.16-5.24.37-6.98.94.25,2.71-1.83,5.05-2.5,7.25-.22.72.04,1.45-.09,2.04-.07.29-.84.47-1.2,1.09-1.93,3.32-4.53,11-6.17,15-1,2.44-1.96,4.92-2.95,7.36-.47,1.18-.99,2.47-1.47,3.68l-1.41-.19c.69,1.59-1.59-.34-1.9-.55ZM299.77,82.02c.65-.94,6.76-.06,8.12-.05,2.05.02,4.82-.31,6.81-.29-.21,1.11.56.71,1.27.74,2.87.11,5.8,0,8.67,0,9.43.02,19.05-.37,28.35-.37.9,0,2.21.69,3.32.37v18.41c-.73.02-1.48-.03-2.21,0-4.34.15-11.86.78-15.83.37-2.24.88-5.43-.1-7.49.37-.28.07-.24.7-.4.69-.85-.03-2.19-.73-3.34-.73-7.01.04-14.35.74-21.36.76-1.37,0-6.15.46-6.44-.73l.53-19.53ZM152.23,94.28c.55-.82,1.19-.75,1.19-.83v-11.41c2.83.71,6.06.31,9.04.35,3.27.04,6.05.07,8.76-.12,3.55-.24,7.01-.2,10.56-.23.88,1.04,3.97.94,5.4.97,4.46.09,12.1.74,16.16.16.87-.12,1.5-.85,2.16-.77.56.06.94.69,1.52.75.6.07,1.42-.38,2.18-.38,4.66-.02,9.41-.05,13.99,0,4.57.06,1.98,3.02,2.02,6.09.03,2.42.82,5.46.95,7.71.11,1.85-.21,4.49-.19,6.45-22.19-.04-45.37.41-67.58,1.09-1.09.03-3.4.85-4.25.23-.49-.36-.01-1.39-.7-1.31-.15,1.27.32,2.43.36,3.68-1.52.84-.39,2.91-.35,4.22.1,3.35-.08,6.91-.01,10.14-.7-4.86-.4-9.98-.74-14.9-.2-2.91-2.06-9.5-.45-11.88Z"/>
  <path class="st0" d="M377.67,159.34c-.08,0-.16.01-.24.03l-.13.7.37-.73Z"/>
  <path class="st0" d="M446.89,272.7c.25-2.33.63-5.05.74-7.36.04-.85.02-1.73,0-2.58-.02-.61.02-1.23,0-1.84-.64.37-1.42,1.08-1.78,1.71-1,1.72-2.61,7.64-2.25,9.51.36,1.9,2.03,1.05,3.3.56Z"/>
  <path class="st0" d="M451.51,280.82c1.7-2.19,2.14-.42,4.22-.39.03-1.41-2.47-4.2-3.69-3.52-.79.44-1.06,2.6-2.69,1.64-1.35-.8-.81-1.42-.98-2.54-1.5,2.76,1.04,4.04,1.85,6.25,1.01.27.76-.77,1.3-1.45Z"/>
  <path class="st0" d="M127.85,275.59c.3,0,.48-.31.54-.32l-2.55-.03c.07.08,1.74.34,2.01.34Z"/>
  <path class="st0" d="M390.5,214.88c-.05.07-.68,0-.67.19.02,1.07,1.22,1.77.35,3.52-.53,1.98.93,1.27,1.31,1.81.95,1.36-.96,2.81-.94,3.52.01.57.8.89.69,1.75-.12.95-1.4,2.48-1.42,3.59.67-.19,1.34-1.79,2.03-.74l.65,5.24c1.28,2.5,2.73,7.3,5.24,2.87l2.02,2.94-.36-3.31,1.1,1.47c.19-.79-.44-1.71-.37-2.39.1-.93,1.47-1.13.74-2.39l.74,1.1c1.44-1.98,3.39.26,3.6-2.48.08-1.07-.71-2.31-.11-3.43l2.04.02c.12,1.99-.43.46-1.1.89-.19.12-.8,1.27-.74,1.32,2.03-1.33,6.37,1.5,6.26-1.47-2.35,1.28-1.68-.91-3.3-1.66.74-.41,1.43-1.48,1.97-1.89,1.33-1.02,2.85-.29,2.08-2.71,1.17.35.56-.91.74-1.11.08-.09,1.67.68,2.21-.37,1.12-2.06,2.46-5.15,3.31-7.36.48-1.24,2.35-6.92,1.8-7.67-.12-.16-.71-.13-.96-.59-.13-.25.66-2.83.66-3.7,0-1.3-.32-1.99-.77-3.13-.66-1.68-1.3-1.54-1.47-3.31-.12-1.2.51-1.39.38-2.36-.02-.13-.68-1.64-.75-1.69-.36-.24-.99.59-1.29.61-.15,0-1.12-1.1-1.28-.05-.19,1.27,1.74.3,1.84,1.28l-1.11.19c.95,3.16-1.85,2.93-4.04,3.12.59-1.84-.14-2.69-.37-4.42-1.75.54-3.51.84-2.58,2.95-1.37-1.35-1.85-.29-3.31,0,.84-1,.05-1.71,0-2.2-1.17.88-2.06,4.91-.75,5.73.53.33,1.66-.71,2.49-.86.53-.1,4.79-.5,5.04-.44,1.41.34-.78,3.05-.82,3.54-.04.52.69,1.03.68,1.6l2.57-2.94c-.36.61.03,1.8-.17,2.2-.36.71-1.48.62-1.85,1.11-.83,1.11.2,3.45-1.66,3.67-.58-1-.07-1.56,0-2.21.12-1.26.72-1.7-.37-2.94-1-1.14-1.38-.25-1.47-.37-.31-.39.72-4.04-1.07-2.92-.89.56.94,3.7-2.01,2.92-.34-.09-.06-1.1-.96-.74.09,1.27-2.85,2.48-1.45,3.48.43.31,2.09.17.74,1.89-.58.74-1.77.51-2.61.51-.13-.11,1.12-2.57-.49-2.52-1.19.03-.96,1.24-1.38,1.95-.45.76-1.5.17-.71,1.68-1.7-1.27-4.77-1.52-6.24-2.41-.7-.42-1.58-2.97-3-1.12-.29.37-.71,3.4-.71,4.06,0,.65.35,5.11.46,5.46.19.63,1.39,1.12.98,1.7Z"/>
  <path class="st0" d="M357.78,157.86l.37,3.68h1.1s-.37-12.15-.37-12.15l-.73.37c-.34-.5.77-3.46-1.11-3.31-.33.39.04,2.61-.02,3.08-.03.27-.55.22-.6.42-.43,1.79-.85,2.09-1.21,3.03-.28.72-1.01,6.28-.79,6.93.75,2.22,1.08-1.8,1.17-2.24.11-.6-.24-.63.72-.55.15,1.2-.52,3.11.73,3.68.28-.41-.35-2.67.74-2.94Z"/>
</svg>