<?xml version="1.0" encoding="UTF-8"?>
<svg id="Layer_1" xmlns="http://www.w3.org/2000/svg" version="1.1" viewBox="0 0 500 500">
  <!-- Generator: Adobe Illustrator 29.1.0, SVG Export Plug-In . SVG Version: 2.1.0 Build 142)  -->
  <path d="M441.29,410.42c-.19-.66,0-.62,0-.65-.49-1.75-1.75-3.37-2-5.2h-1.33c0-.21.03-.44,0-.65-.23-1.55-1.53-4.27-2-5.85-1.24-4.14-2.71-8.22-4-12.34-.77-2.45-1.34-4.67-2-7.15-.57-2.16-.6-5.19-2.67-6.5-.2.44-.47.86-.67,1.3-.28.63-.81,1.16-.67,1.94h-.65c-.04-1.08.03-2.17,0-3.24,0-.22,0-.43,0-.65-.09-3.89.52-9.1.02-12.71-.09-.67-.08-.67-.69-.93-.28-.12-.92.08-1.33,0-.13-1.18,1.22.01,1.39-1.57.33-3.18.19-8.36-.73-11.41.29-.46,1.21-.24,1.38-1.61.65-5.24.38-16.64-.02-22.12-.06-.86.36-1.79-.69-2.25-.18-.08-1.29-.05-1.33,0-.29.31-.03,7.2,0,8.45h-.67v-37.68c-.44-.02-.89.03-1.33,0-.88-.05-1.79.02-2.67,0,.17,7.34-.22,14.75,0,22.09h-.67c-1.77.03-3.57-.04-5.34,0v-.65h-14.68c-4.22,0-8.46,0-12.68,0-.22,0-.44,0-.67,0-4.22-.01-8.46.02-12.68,0-.22,0-.44,0-.67,0v.65c-17.78.02-35.6,0-53.38,0-8.89,0-17.8,0-26.69,0-.22,0-.44,0-.67,0-17.78,0-35.6,0-53.38,0v-.65c-.22,0-.44,0-.67,0-4.22,0-8.46,0-12.68,0-.22,0-.44,0-.67,0-4.22,0-8.46,0-12.68,0-.22,0-.44,0-.67,0-4.44,0-8.91,0-13.35,0-.22,0-.44,0-.67,0-4.22,0-8.46,0-12.68,0-.22,0-.44,0-.67,0-4.22,0-8.46,0-12.68,0h-105.43v.65l-.67.65v.65h-.67c0-3.09.72-22.45,0-23.38-.63-.62-1.88-.5-2.04-1.06.04-14.58.07-29.18.04-43.76h-.67c-.04-1.73.03-3.47,0-5.2l-2.98,25.34c1.29.04,2.68-.66,2.31,1.3l.67,12.34c0,.22,0,.43,0,.65l-1.63,10.02c-.16.08-.3.19-.38.37-.14.35.05,1.37,0,1.95-.02.21,0,.43,0,.65-.17,4.09.04,8.25,0,12.34,0,.22,0,.43,0,.65-.03,4.11.02,8.24,0,12.34,0,.43,0,.87,0,1.3-.02,4.11.01,8.24,0,12.34,0,.22,0,.43,0,.65,0,4.11.01,8.24,0,12.34,0,.22,0,.43,0,.65,0,.22,0,.43,0,.65v11.69c0,.22,0,.43,0,.65v12.34c0,.22.02.44,0,.65l-1.34,1.53c-.49.1-1.14.19-1.99.42-.46.12-1.58-.27-1.9.07-.19.21-.89,3.09-1.43,5.56l-3.34,3.8c.12,1.94,1.12.82,2,.31-.66,2.55-1.27,5.54-2.67,7.79-.27,2.56-1.3,4.22-2,6.5-.18.58.27,1.55-.67,1.95.21.79-.02,1.82.67,2.6-.55,1.08-.41,1.97-.67,2.6-.16.38-.44,1.01-.67,1.3-1.25,1.57-1.7,1.69-2.67,4.55-.07.19.06.45,0,.65-.11.35.1.93,0,1.3-.04.14-.48.54-.67,1.3-2.02-.33-2.77,6.02-2.39,6.53,2.64,1.33,6.14.33,9.06.62v-.65l27.36,1.3c2.09-.02,5.66-1.26,8.3-.71l.38-.59-2-9.09c-1.4.2-1.85,1.01-2.67,1.3-.37-1.11.03-1.86,0-1.95.67,0,1.33,0,2,0l-3.34-12.34h-1.33c-.07-.24-.62-.48-.67-.65-.42-1.52-1.54-3.58-2-5.2-.7-2.42-1.17-5.06-2-7.79-.06-.2.06-.45,0-.65-.92-3.08-1.9-6.17-2.89-9.24-.22-.67-1.05-1.42-1.12-1.81,0-.05.8-.24.67-.64-1.6,0-2.7.33-4.01-.66-.88-.67,0-.31,0-.65-.04-4.11.03-8.24,0-12.34,0-.22,0-.43,0-.65,0-3.54.54-9.17,0-12.34-.01-.06-.84-.12-.67-.64,7.47-.1,14.96.09,22.43.04,1.19,0,2.14-.69,2.26-.7,4.51-.02,9.9.65,14.35.65h11.34c5.01,0,10.04-.59,15.01-.65l26.69.65v-.65c.17.23.58.44.67.65,4.29.38,8.67-.33,12.9-.4,3.15-.05,4.04.88,7.79-.25.34-.1.92.07,1.33,0,0,.43,0,.87,0,1.3-.01,4.11.02,8.24,0,12.34,0,.22,0,.43,0,.65,0,1.08,0,2.17,0,3.25-.02,3.02.1,6.08,0,9.09-.1,3.28-.42,1.49-3.34,1.95-3.18.5-3.32,6.95-3.34,9.74-.95-.07-.9-.11-1.33.65-.17.3-1.14,2.71-1.33,3.25-1.08,3.04-2.76,8.59-3.34,11.69-.36,1.96.07,2.73,0,3.25-.14,1.13-.3,2.16-.67,3.25-.15.45-.52.86-.67,1.3-.56,1.66-1.42,3.24-2,5.2-.06.2.06.45,0,.65-.1.36.09.91,0,1.3-.33,1.43-2.48,4.7-1.33,5.85.68.68.65.57,1.61.68,4.9.56,11.88-.06,17.08-.03,1.11,0,2.22,0,3.34,0v.65c0,.22,0,.43,0,.65,4.22-.04,8.46.05,12.68,0,.05,0,.33-.43.85-.44,1.22-.02,6.56,1.02,7.16.44l-2-9.74h-1.33c.2-.15.4-.61.67-.65l-3.34-12.34c-.22.01-.46-.04-.67,0-.4.07-.9.51-1.33.65-.33-1.09-.38-2.32-.67-3.25-1.55-4.98-3.23-10.05-5.02-14.96-.38-1.03.15-2.31-1.66-1.93-.11-1.97.36-3.62-1.33-5.2v-.65c.38-.09.9.06,1.33,0v-.64c-1.6.02-2.69.34-4-.66-.88-.67,0-.31,0-.65-.04-4.1,0-8.24,0-12.34,0-.21,0-.43,0-.65v-12.34c-.36.03-.91.53-1.33.65,0-.43,0-.87,0-1.3h14.01c7.44,0,14.92.1,22.36.01,1.13-.01,2.97.42,3.66-.66.37.01,1.33.61,2.3.65,1.11.05,6.76.2,7.05,0,.11-.08-.06-.93,0-1.3,17.56,0,35.15-.03,52.71,0,3.61,0,8.13-.55,11.34.65.61-.1,1.37.09,2,0v26.63c.06,0,.42.47.67.65.24.18.42.47.67.65-2.22.54-3.76.3-5.34.65-1.8.4-1.6,3.26-2,4.55-.19.6-.45,1.34-.67,1.95-.42,1.18-1.02,2.33-1.33,3.25-.22.65-.45,1.31-.67,1.95-.19.56-.57,1.01-.67,1.3-1.17,3.59-2.26,7.41-3.34,11.04-.16.53-.65,1.82-.67,1.95-.09.58-.14,1.85.67,1.95-.46.96-.87,3.57-1.33,4.55-.56,1.18-1.69,2.34-2.67,5.2-.07.19.06.45,0,.65-.06.2.06.45,0,.65-.08.28-.52.71-.67,1.3-2.41-.41-1.2,3.99-3.34,5.2.02.65-.03,1.3,0,1.95,3.71,1.37,8.1.34,12.01.65-.05-.37-.53-.88-.67-1.3.67,0,1.33,0,2,0v1.3h12.68c.22,0,.45,0,.67,0,4.21,0,8.47.1,12.68,0,.22,0,.63,0,.67,0,1.68-.12,3.08.69,2.67-1.3.25.05.47.57.67.65,5.23,2.18.57-6.73,0-9.09-.22.03-.45-.03-.67,0,.2.6-.63,1.15-.67,1.3-.66-.81-1.17-1.53-1.33-2.6-.3-2,.48-7.49-2-7.15.04-.21-.05-.44,0-.65-.25-.17-.43-.5-.67-.65-.05-.64.08-1.32,0-1.95-.54-4.29-2.73-10.61-4-14.94-.59-2-1.37-3.85-2-5.85-.38-1.21-1.94-5.3-2-5.85,0-.05.8-.18.67-.64-1.14-.23-3.08.28-4.01-.01.32-.85,1.27-.62,2-.65v-.65c-.67-.02-1.34.03-2,0,.02-3.58-.01-7.18-.03-10.78,0-.85.7-1.48.7-1.57,0-.22,0-.43,0-.65,0-3.28-1.94-8.82,0-12.34v-.65c3.82.26,8.11-.01,12.01,0,4.66.02,9.35,0,14.01,0,4.22,0,8.46,0,12.68,0,.67,0,1.33,0,2,0,21.79,0,43.61.08,65.39,0,2.19,0,4.45-.1,6.67,0-.05.18.02.42,0,.65-.41,3.73.04,8.45,0,12.34,0,.22,0,.43,0,.65-.02,4.07.21,8.29,0,12.34-.11,2.04-.42,1.22-2.67,1.3-2.54.09-1.93.18-2.67,3.25-.61,2.55-.78,5.21-1.33,7.79-.42.19-1.03.26-1.33.65-.06.08-.48,1.43-.67,1.95-1.11,3.05-2.53,7.87-3.34,11.04-.19.76-.59,1.59-.67,1.95-1.37-1.35-4.12-.4-6.01-.65v12.34c0,.19,2.25-.58,2,.64-.91.14-1.91-.74-2.03.94-.15,2.31.08,4.53-.64,6.86,0,.43.02.87,0,1.3.78.69.32,3.16,1.05,3.29l12.3-.03c.29-.29-.47-2.61.33-2.61l.33,2.61h12.68c.03-.98-.34-2.57.33-3.26.62,0,.31,2.51.33,3.25,1.82-.33,12.24.44,12.68,0,.2-.2-.15-2.53,0-3.25.53-.17.55.63.66.65.4.07.9-.03,1.33,0,.1-.76-1.19-1.01-1.33-1.29-.28-.55-.43-1.54-.53-2.2l.53-.4c.02.06.72.26.95.73.7,1.44,1.15,4.02,1.72.57.05.21.86.55.72,1.58-.1.78-1.68-.12-1.39,1.02,4.96.68.77-7.03,0-9.74ZM282.48,340.26c-5.77,0-11.58,0-17.35,0-19.34,0-38.71,0-58.05,0h-24.02c0-.22,0-.43,0-.65,0-.43,0-.87,0-1.3.03-1.5.62-4.25.67-6.5,0-.22,0-.43,0-.65.09-4.07.15-8.27,0-12.34-.02-.43.04-.87,0-1.3,3.21-.52,8.75.72,11.58.02.76-.19.14-1.34.76-1.32.64.02.1.93.45,1.14.51.32,11.14.43,12.13.18.69-.17.15-1.18.77-1.32,1.53-.33.67,1.12,1.43,1.32,2.9.76,8.93-.57,12.25-.01v-1.94l-38.71-.65c12.45-.94,27.29.02,40.04,0,9.33-.01,18.69-.02,28.03,0v.65c-2.01.15-2.23-.63-2,1.95-.22,0-.44,0-.67,0,.08-2.27.41-1.79-1.64-1.95-2.69-.21-6.72-.21-9.41,0-2.05.16-1.72-.32-1.64,1.95-.22,0-.44,0-.67,0,.08-2.27.41-1.79-1.64-1.95-3.46-.26-7.16.2-10.65,0l-.4,1.96c3.55.03,7.13-.03,10.68,0,.47.46,1.83.78,2,1.3.22,0,.44,0,.67,0,4.21-.03,8.47.08,12.68,0,.22,0,.44,0,.67,0,.12,0,1.02-.68,2.26-.7,12.04-.21,24.1.27,36.15.03.68.08.75,0,.97.67h.67c-.02-.43.05-.88,0-1.3-.06-.49-.72-1.27-.67-1.95.6.02,1.21.65,1.33.65,2.25.07,4.62.31,6.67-.65,2.14,2.37-.69,20.51,1.33,24.68-.34.55-.59,0-.67,0-5.33-.06-10.69,0-16.01,0ZM73.86,317.54c.76-.2-.11-1.64,1.43-1.32.62.13.09,1.14.77,1.32.99.25,11.61.14,12.13-.18.35-.22-.19-1.12.45-1.14.62-.02,0,1.13.76,1.32,1.49.37,8.62.14,10.61-.01,2.05-.16,1.72.32,1.64-1.95.22,0,.44,0,.67,0-.08,2.27-.41,1.79,1.64,1.95,2.69.21,6.72.21,9.41,0,2.05-.16,1.72.32,1.64-1.95.22,0,.44,0,.67,0-.08,2.27-.41,1.79,1.64,1.95,1.99.15,9.12.38,10.61.01.76-.19.14-1.32.76-1.32s0,1.14.76,1.32c1.01.25,11.61.15,12.11-.19.36-.25-.37-1.44,1.14-1.13.62.13.08,1.14.77,1.32,1.15.29,9.06.21,10.59.03.99-.12,1.22-.59,1.66-1.34-.07,0,.15-.64-1.33-.65v-.58c2.57,0,5.14-.02,7.69-.07,5.22,0,10.45,0,15.66,0l-8.01.65v1.94h8.68c.02.43-.01.87,0,1.3.11,4.1-.02,8.24,0,12.34,0,.22,0,.43,0,.65,0,2.59,0,5.2,0,7.79-.18.08-.46-.06-.67,0h-113.44l-.67.65c-.81-5.75-.1-8.39,0-13.64.05-2.43.24-5.46,0-7.79-.04-.35-.57-.89-.67-1.3,3-.5,8.3.69,10.91.01ZM417.94,340.26h-.67c-.91-1.13-3.21-.63-4.67-.65-.44,0-.89,0-1.33,0-3.99-.02-8.02,0-12.01,0-.44,0-.89,0-1.33,0-3.99,0-8.02,0-12.01,0-.44,0-.89,0-1.33,0-4.22,0-8.46,0-12.68,0h-.67c-4.22,0-8.46,0-12.68,0h-54.72v.65h-.67c.04-7.73.68-17.19,0-24.68,1.21.45.85,1.83,2.31,2,1.58.19,10.08.26,11.27-.04.76-.19.14-1.34.76-1.32.66.02-.28,1.17,1.29,1.36h38.72s.7-2.01.7-2.01c.79,0-.18,1.84.7,2,1.39.25,10.55.25,11.95,0,.88-.16-.09-2,.7-2,.81.19-.19,1.84.7,2,1.15.21,10.93.21,11.88-.03.76-.19.14-1.34.76-1.32.64.02.1.93.45,1.14.51.32,11.14.43,12.13.18.69-.17.15-1.19.77-1.32,1.51-.31.77.88,1.14,1.13.5.34,11.1.44,12.11.19.76-.19.14-1.32.76-1.32.62,0,0,1.14.76,1.32,1.22.3,6.03.79,4.91-1.96.21.03.45,0,.67,0-.73,7.52.99,16.74,0,24.03-.02.18-.56.43-.67.65Z"/>
  <path d="M58.27,127.85c.4.59,2.48.83,2.67,2.6-.58,3.02.05,8.87,0,12.34h-.67c.03,1.76-.68,4.02-.67,4.55,0,.22,0,.43,0,.65.05,3.81.66,8.24.67,12.34,0,.22,0,.43,0,.65,0,4.09-.64,8.56-.67,12.34,0,.22,0,.43,0,.65,0,.09.7.72.7,1.57-.03,2.84.49,8.44-.03,10.77-.08.34-1.02.94-1.33,1.3.44.02.89-.04,1.33,0,.04,1.3-.03,2.6,0,3.9h.67c-.02,11.25-.02,22.53,0,33.78.25.19.43.46.67.65h.67v-12.34c0-.22,0-.44,0-.65,0-4.11,0-8.24,0-12.34,0-.43,0-.86,0-1.3,0-3.89,0-7.8,0-11.69-.18-.04-.66-.48-.67-.65-.03-.61.18-.56.67-.65v-12.34c0-.22,0-.43,0-.65,0-4.11,0-8.24,0-12.34v-.65c0-4.1-.03-8.24,0-12.34,0-.21,0-.43,0-.65,0-.22,0-.43,0-.65.03-3.88-.11-7.81,0-11.69.01-.43-.02-.87,0-1.3.3-5.76,1.9-3.74,2.57-5.62.49-1.37-.23-6.4.1-6.72-.47.26-1.12.84-1.33,1.3-.19-1.97.17-2.16-2-2.6-.21-.04-.45.02-.67,0-.62-.05-1.38-.04-2,0-.61.04-1.22.65-1.33.65.02.86-.03,1.73,0,2.6.05,1.18.04,3.64.67,4.55Z"/>
  <path d="M289.82,344.16c-.44-.91-.81-.61-1.63-.68-11.87-1.03-25.72.57-37.75.36,13.07.39,26.29.59,39.38.32Z"/>
  <path d="M423.1,126.71c-.28.91-1.33,1.46-1.67,2.27-2.27,5.48-.79,36.02-.82,44.35,0,1.3,0,2.6,0,3.9-.05,16.76-.68,34.35,0,51.02.05,1.25-.68,2.6,1.33,2.24v.48c0-.16,0-.33,0-.48,0-.02,0-.05,0-.07v-3.82s-.66-39.63-.66-39.63c-.17-.52.66-.58.67-.64.41-2.39-.01-6.43,0-9.09,0-1.08,0-2.17,0-3.25,0-.22,0-.43,0-.65,0-4.11.01-8.24,0-12.34,0-.22,0-.43,0-.65-.01-4.33-.78-28.75.34-30.53.41-.65,1.87-.73,2.23-1.73.69-1.93-.27-5.79.1-8.02l-1.51,6.64Z"/>
  <path d="M423.61,317.53c1.28.22,1.6.38,1.67-.96.41-7.77-.35-15.64.04-23.42l-1.38-1.61-2.01-11.97c-.23,1.42-.28,8.08.01,9.37.04.17.65.45.67.65.01.1.54.77.67,1.95.3,2.78-.98,25.76.34,25.99Z"/>
  <path d="M421.93,238.56v-7.59c-.02,2.38-.33,5.54,0,7.59Z"/>
  <path d="M421.93,251.55l-.14-2.49c-.02.86,0,1.7.14,2.49Z"/>
  <path d="M421.27,239.59l.52,9.47c.06-3.16.75-6.64-.52-9.47Z"/>
  <path d="M421.93,278.18v-11.59c-.32,1.97-.32,9.62,0,11.59Z"/>
  <path d="M421.93,253.6c-.3,1.88-.3,9.06,0,10.94v-10.94Z"/>
  <path d="M420.83,127.75c1.34-.47,2.57-4.79,2.47-6.07-.15-1.81-1.36-1.46-2.69-1.62-.59-.07-1.39-.04-2,0-.62.04-1.18.64-1.33.65v.65c.3,3.04-.61,7.84,3.56,6.39Z"/>
  <path d="M169.05,317.53v-1.94c-3.68,0-7.38-.01-11.08-.03-.98,0-1.52.68-1.61.68-.09.47.67,1.21.67,1.3h12.01Z"/>
</svg>